<svg version="1.1" xmlns="http://www.w3.org/2000/svg" xmlns:xlink="http://www.w3.org/1999/xlink" viewBox="0 0 274 274" enable-background="new 0 0 274 274" xml:space="preserve" style="background-color:black">
<style>
.svg1 {
stroke-dasharray: 200;
stroke-dashoffset: 822;
animation: dash 15s infinite ;
}
@keyframes dash {
from {
stroke-dashoffset: 822;
stroke: #FF00FF;
}
to {
stroke-dasharray: 411;
stroke: #FF00FF;
}
}
</style><defs><filter id="f1"><feConvolveMatrix kernelMatrix="1 1 0 0 0 0 0 1 -1"/></filter></defs><path class="svg1" filter="url(#f1)" style="fill: none; stroke: white; stroke-width: 0.3; stroke-linecap: round; stroke-linejoin:  miter; stroke-miterlimit: 1;" d="M11 33 1 47ZM263 33 273 47ZM263 241 273 227ZM11 241 1 227ZM33 1 47 55ZM241 1 227 55ZM241 273 227 219ZM33 273 47 219ZM1 47 55 62ZM273 47 219 62ZM273 227 219 212ZM1 227 55 212ZM47 55 62 134ZM227 55 212 134ZM227 219 212 140ZM47 219 62 140ZM55 62 134 15ZM219 62 140 15ZM219 212 140 259ZM55 212 134 259ZM62 134 15 30ZM212 134 259 30ZM212 140 259 244ZM62 140 15 244ZM134 15 30 93ZM140 15 244 93ZM140 259 244 181ZM134 259 30 181ZM15 30 93 17ZM259 30 181 17ZM259 244 181 257ZM15 244 93 257ZM30 93 17 18ZM244 93 257 18ZM244 181 257 256ZM30 181 17 256ZM93 17 18 4ZM181 17 256 4ZM181 257 256 270ZM93 257 18 270ZM17 18 4 110ZM257 18 270 110ZM257 256 270 164ZM17 256 4 164ZM18 4 110 80ZM256 4 164 80ZM256 270 164 194ZM18 270 110 194ZM4 110 80 18ZM270 110 194 18ZM270 164 194 256ZM4 164 80 256ZM110 80 18 19ZM164 80 256 19ZM164 194 256 255ZM110 194 18 255ZM80 18 19 95ZM194 18 255 95ZM194 256 255 179ZM80 256 19 179ZM18 19 95 116ZM256 19 179 116ZM256 255 179 158ZM18 255 95 158ZM19 95 116 128ZM255 95 158 128ZM255 179 158 146ZM19 179 116 146ZM95 116 128 104ZM179 116 146 104ZM179 158 146 170ZM95 158 128 170ZM116 128 104 75ZM158 128 170 75ZM158 146 170 199ZM116 146 104 199ZM128 104 75 99ZM146 104 199 99ZM146 170 199 175ZM128 170 75 175ZM104 75 99 33ZM170 75 175 33ZM170 199 175 241ZM104 199 99 241ZM75 99 33 126ZM199 99 241 126ZM199 175 241 148ZM75 175 33 148ZM99 33 126 70ZM175 33 148 70ZM175 241 148 204ZM99 241 126 204ZM33 126 70 54ZM241 126 204 54ZM241 148 204 220ZM33 148 70 220ZM126 70 54 26ZM148 70 220 26ZM148 204 220 248ZM126 204 54 248ZM70 54 26 92ZM204 54 248 92ZM204 220 248 182ZM70 220 26 182ZM54 26 92 57ZM220 26 182 57ZM220 248 182 217ZM54 248 92 217ZM26 92 57 129ZM248 92 217 129ZM248 182 217 145ZM26 182 57 145ZM92 57 129 14ZM182 57 145 14ZM182 217 145 260ZM92 217 129 260ZM57 129 14 20ZM217 129 260 20ZM217 145 260 254ZM57 145 14 254ZM129 14 20 17ZM145 14 254 17ZM145 260 254 257ZM129 260 20 257ZM14 20 17 55ZM260 20 257 55ZM260 254 257 219ZM14 254 17 219ZM20 17 55 52ZM254 17 219 52ZM254 257 219 222ZM20 257 55 222ZM17 55 52 104ZM257 55 222 104ZM257 219 222 170ZM17 219 52 170ZM55 52 104 30ZM219 52 170 30ZM219 222 170 244ZM55 222 104 244ZM52 104 30 34ZM222 104 244 34ZM222 170 244 240ZM52 170 30 240Z" /></svg>