<?xml version="1.0" encoding="utf-8"?>
<!-- Generator: Adobe Illustrator 26.0.1, SVG Export Plug-In . SVG Version: 6.00 Build 0)  -->
<svg version="1.0" id="Layer_1" xmlns="http://www.w3.org/2000/svg" xmlns:xlink="http://www.w3.org/1999/xlink" x="0px" y="0px"
	 viewBox="0 0 512 512" style="enable-background:new 0 0 512 512;" xml:space="preserve">
<style type="text/css">
	.st0{fill:#FFFFFF;}
</style>
<rect width="512" height="512"/>
<g>
	<path class="st0" d="M150.8,128.6c14.5,0,28.3,5.2,41.1,15.7c12.9,10.5,21.6,22.9,26.2,37.2c2.8,9,4.2,17.4,4.2,25.3
		c0,21.5-7.6,40-22.9,55.4s-33.6,23.2-55,23.2H83v105.6c-1.3,4.1-4,6.1-8.2,6.1c-5,0-7.8-2.2-8.6-6.5V134.7c0.8-3.6,2.7-5.5,5.7-5.7
		l0.8-0.4H150.8z M150.8,145.5H83v123.3h67.4c15.6-1.5,29-8.6,40.2-21.3c10-11.1,14.9-24.7,14.9-41c0-7.2-1.4-14.6-4.2-22
		c-3.8-10.6-10.6-19.7-20.3-27.4C171.3,149.3,161.2,145.5,150.8,145.5z"/>
	<path class="st0" d="M440.1,129c3.6,1,5.6,3.2,6.1,6.5c0,4.6-1.3,7.5-3.8,8.8l-2.3,1.1h-80c-10.2,0-20.1,3.8-29.7,11.5
		c-9.6,7.7-16.3,16.8-20.1,27.3c-2.8,7.7-4.2,13.8-4.2,18.4V324c0,10.8,3.8,21.1,11.5,31.1c7.7,10,16.9,17,27.6,21.1
		c4.4,1.8,9.9,3.1,16.5,3.8h67.6V257.2h-35.6c-3.3-0.8-5.4-2.8-6.1-6.1c-0.3-0.5-0.4-1.3-0.4-2.3c0-1.8,0.6-3.4,1.9-5
		c1.3-1.5,3.1-2.7,5.4-3.4h45.6c3.1,0.8,5.1,2.8,6.1,6.1v144.3c-0.5,2.3-2.2,4.2-5,5.8l-2.7,0.8l-77.3-0.4
		c-13.5,0-26.4-4.4-38.5-13.2c-12.1-8.8-21-19.8-26.6-33.1c-4.6-10.7-6.9-22.1-6.9-34.1V201.7c0-14,4.7-27.4,14-40
		c9.3-12.6,20.9-21.6,34.6-27c8.4-3.3,17-5.4,25.6-6.1L440.1,129z"/>
</g>
<g>
</g>
<g>
</g>
<g>
</g>
<g>
</g>
<g>
</g>
<g>
</g>
<g>
</g>
<g>
</g>
<g>
</g>
<g>
</g>
<g>
</g>
<g>
</g>
<g>
</g>
<g>
</g>
<g>
</g>
</svg>
